Coordinates
version=1
nRows=32
nColumns=12
inDegrees=yes

Units are S.I. units (second, meters, Newtons, ...)
Angles are in degrees

endheader
time	SC_y	SC_z	SC_x	AC_y	AC_z	AC_x	GH_y	GH_z	GH_yy	EL_x	PS_y
       0.0               -53.2          8.854          25.58          39.88         -10.79          -15.4         -165.7         -6.446          32.83          101.3          137.6
   0.04985               -53.2          8.856          25.58          39.89         -10.79          -15.4         -165.6         -6.433          32.83          101.3          137.5
    0.0997               -53.2          8.858          25.59          39.89         -10.79         -15.39         -165.6         -6.419          32.82          101.3          137.5
    0.1495              -53.19           8.86          25.59           39.9         -10.79         -15.39         -165.5         -6.404          32.81          101.3          137.5
    0.1994              -53.19          8.862           25.6           39.9         -10.79         -15.38         -165.5         -6.389           32.8          101.3          137.5
    0.2492              -53.19          8.864           25.6          39.91         -10.79         -15.38         -165.4         -6.372          32.79          101.2          137.5
    0.2991              -53.18          8.866          25.61          39.91         -10.79         -15.37         -165.3         -6.354          32.77          101.2          137.4
    0.3489              -53.18          8.869          25.61          39.92         -10.79         -15.36         -165.3         -6.335          32.76          101.2          137.4
    0.3988              -53.18          8.872          25.62          39.92          -10.8         -15.36         -165.2         -6.314          32.75          101.2          137.4
    0.4486              -53.17          8.875          25.62          39.93          -10.8         -15.35         -165.1         -6.292          32.73          101.2          137.3
    0.4985              -53.17          8.878          25.63          39.94          -10.8         -15.34         -165.0         -6.269          32.72          101.1          137.3
    0.5483              -53.17          8.881          25.64          39.95          -10.8         -15.33         -164.9         -6.243           32.7          101.1          137.3
    0.5982              -53.16          8.885          25.65          39.95          -10.8         -15.32         -164.8         -6.216          32.69          101.1          137.2
     0.648              -53.16          8.889          25.66          39.96          -10.8         -15.31         -164.7         -6.187          32.67          101.0          137.2
    0.6979              -53.15          8.893          25.66          39.97          -10.8          -15.3         -164.6         -6.155          32.65          101.0          137.1
    0.7477              -53.15          8.897          25.67          39.99          -10.8         -15.29         -164.5          -6.12          32.62          101.0          137.1
    0.7976              -53.14          8.902          25.69           40.0          -10.8         -15.27         -164.3         -6.082           32.6          100.9          137.0
    0.8474              -53.13          8.908           25.7          40.01         -10.81         -15.26         -164.2         -6.041          32.57          100.9          137.0
    0.8973              -53.13          8.914          25.71          40.02         -10.81         -15.24         -164.0         -5.996          32.54          100.8          136.9
    0.9471              -53.12           8.92          25.72          40.04         -10.81         -15.22         -163.8         -5.947          32.51          100.8          136.8
     0.997              -53.11          8.928          25.74          40.06         -10.81          -15.2         -163.6         -5.893          32.48          100.7          136.8
     1.047               -53.1          8.935          25.76          40.07         -10.81         -15.18         -163.4         -5.834          32.44          100.7          136.7
     1.097              -53.09          8.944          25.78           40.1         -10.82         -15.16         -163.2         -5.769           32.4          100.6          136.6
     1.147              -53.08          8.954           25.8          40.12         -10.82         -15.13         -162.9         -5.696          32.35          100.5          136.5
     1.196              -53.07          8.965          25.82          40.14         -10.82          -15.1         -162.6         -5.615           32.3          100.4          136.3
     1.246              -53.05          8.977          25.85          40.17         -10.83         -15.07         -162.2         -5.525          32.24          100.4          136.2
     1.296              -53.04           8.99          25.88           40.2         -10.83         -15.03         -161.9         -5.425          32.17          100.3          136.1
     1.346              -53.02          9.005          25.91          40.24         -10.84         -14.99         -161.4         -5.311           32.1          100.1          135.9
     1.396               -53.0          9.022          25.95          40.28         -10.84         -14.95         -161.0         -5.183          32.02          100.0          135.7
     1.446              -52.97          9.041          25.99          40.33         -10.85         -14.89         -160.4         -5.037          31.92          99.85          135.5
     1.495              -52.95          9.064          26.04          40.38         -10.85         -14.83         -159.8         -4.871          31.82          99.68          135.2
     1.545              -52.92          9.089          26.09          40.44         -10.86         -14.77         -159.1         -4.681          31.69          99.48          135.0
